<svg width="50" height="50" viewBox="0 0 50 50" fill="none" xmlns="http://www.w3.org/2000/svg">
<g clip-path="url(#clip0_134_257)">
<path d="M32.6733 0H17.3249C3.31861 0 -0.00170898 3.32031 -0.00170898 17.3266V32.675C-0.00170898 46.6813 3.31861 50.0016 17.3249 50.0016H32.6733C46.6795 50.0016 49.9999 46.6813 49.9999 32.675V17.3266C49.9999 3.32031 46.6467 0 32.6733 0ZM40.3639 35.6688H36.7342C35.3592 35.6688 34.9358 34.5781 32.4624 32.0719C30.3139 29.9891 29.3624 29.7125 28.8327 29.7125C28.0842 29.7125 27.8717 29.9234 27.8717 30.95V34.2297C27.8717 35.1094 27.5952 35.6375 25.267 35.6375C21.417 35.6375 17.1452 33.3094 14.1499 28.9719C9.63267 22.6156 8.39673 17.8547 8.39673 16.8703C8.39673 16.3406 8.60767 15.8453 9.62485 15.8453H13.2624C14.1827 15.8453 14.5327 16.2688 14.8905 17.2531C16.6889 22.4453 19.6842 26.9938 20.9202 26.9938C21.3764 26.9938 21.5874 26.7828 21.5874 25.6188V20.2563C21.4483 17.7828 20.1467 17.5703 20.1467 16.6922C20.1467 16.2688 20.4967 15.8453 21.0577 15.8453H26.778C27.5514 15.8453 27.8358 16.2688 27.8358 17.1797V24.4141C27.8358 25.1953 28.1858 25.4719 28.3967 25.4719C28.853 25.4719 29.2436 25.1953 30.0889 24.3484C32.7014 21.4188 34.5733 16.9016 34.5733 16.9016C34.817 16.3719 35.2405 15.8766 36.1608 15.8766H39.7983C40.8889 15.8766 41.1327 16.4375 40.8889 17.2188C40.4327 19.3344 35.9811 25.6172 35.9811 25.6172C35.5983 26.2516 35.4514 26.5281 35.9811 27.2359C36.3717 27.7656 37.642 28.8641 38.4874 29.8484C40.042 31.6141 41.2374 33.0953 41.5561 34.1203C41.9139 35.1375 41.3858 35.6672 40.3592 35.6672L40.3639 35.6688Z" fill="#FFF8EC"/>
</g>
<defs>
<clipPath id="clip0_134_257">
<rect width="50" height="50" fill="white"/>
</clipPath>
</defs>
</svg>
