<svg width="48" height="48" viewBox="0 0 48 48" fill="none" xmlns="http://www.w3.org/2000/svg">
<mask id="mask0_193_3640" style="mask-type:luminance" maskUnits="userSpaceOnUse" x="0" y="0" width="48" height="48">
<path d="M0.25 0.25H47.75V47.75H0.25V0.25Z" fill="white"/>
</mask>
<g mask="url(#mask0_193_3640)">
<path d="M28.475 0.600291L27.05 0.40029C22.7673 -0.218065 18.3971 0.393679 14.4488 2.1642C10.5006 3.93473 7.13691 6.79109 4.75 10.4003C2.21039 13.8502 0.696463 17.9471 0.382448 22.2195C0.0684331 26.4919 0.96709 30.7661 2.975 34.5503C3.18049 34.9296 3.30843 35.3459 3.35135 35.7752C3.39427 36.2044 3.35132 36.6378 3.225 37.0503C2.2 40.5753 1.25 44.1253 0.25 47.8503L1.5 47.4753C4.875 46.5753 8.25 45.6753 11.625 44.8503C12.3374 44.7022 13.0778 44.7719 13.75 45.0503C16.778 46.5281 20.0871 47.3411 23.4551 47.4348C26.8232 47.5284 30.1723 46.9006 33.2778 45.5934C36.3832 44.2861 39.1731 42.3298 41.4602 39.8556C43.7474 37.3814 45.4788 34.4466 46.5384 31.2481C47.5979 28.0497 47.9611 24.6616 47.6034 21.3113C47.2458 17.961 46.1757 14.7259 44.4649 11.8232C42.754 8.92047 40.4421 6.41728 37.6843 4.4816C34.9264 2.54593 31.7864 1.22255 28.475 0.600291ZM34.775 33.4003C33.8664 34.2138 32.7584 34.7719 31.5639 35.0178C30.3694 35.2638 29.1311 35.1887 27.975 34.8003C22.7364 33.3252 18.1915 30.0384 15.15 25.5253C13.9882 23.9291 13.0542 22.179 12.375 20.3253C12.0071 19.2497 11.9408 18.094 12.1832 16.9834C12.4256 15.8728 12.9674 14.8498 13.75 14.0253C14.131 13.5391 14.6495 13.1789 15.2381 12.9916C15.8267 12.8043 16.4581 12.7986 17.05 12.9753C17.55 13.1003 17.9 13.8253 18.35 14.3753C18.715 15.4078 19.1425 16.4178 19.625 17.4003C19.9911 17.9016 20.1439 18.5273 20.0503 19.1409C19.9566 19.7545 19.624 20.3061 19.125 20.6753C18 21.6753 18.175 22.5003 18.975 23.6253C20.7436 26.1732 23.184 28.1809 26.025 29.4253C26.825 29.7753 27.425 29.8503 27.95 29.0253C28.175 28.7003 28.475 28.4253 28.725 28.1253C30.175 26.3003 29.725 26.3253 32.025 27.3253C32.7575 27.6328 33.4675 27.9928 34.15 28.4003C34.825 28.8003 35.85 29.2253 36 29.8253C36.1443 30.4762 36.1063 31.1543 35.8902 31.785C35.6741 32.4158 35.2882 32.9747 34.775 33.4003Z" fill="#50453B"/>
</g>
</svg>
