<svg width="22" height="12" viewBox="0 0 22 12" fill="none" xmlns="http://www.w3.org/2000/svg">
<path d="M11.6854 11.7166L21.7386 1.53338C21.9064 1.36346 22 1.13772 22 0.902977C22 0.66823 21.9064 0.442492 21.7386 0.27258L21.7272 0.261616C21.6458 0.17896 21.5479 0.113144 21.4394 0.0681686C21.3308 0.0231933 21.2139 -6.87216e-08 21.0958 -7.90486e-08C20.9777 -8.93755e-08 20.8608 0.0231933 20.7522 0.0681685C20.6437 0.113144 20.5457 0.17896 20.4644 0.261616L10.9981 9.85098L1.53562 0.261614C1.45426 0.178958 1.35632 0.113142 1.24778 0.0681668C1.13923 0.0231915 1.02234 -1.83393e-06 0.904214 -1.84425e-06C0.786088 -1.85458e-06 0.669196 0.0231915 0.560649 0.0681668C0.452104 0.113142 0.354173 0.178958 0.272813 0.261614L0.261453 0.272578C0.0936251 0.44249 9.90655e-07 0.668228 9.70133e-07 0.902975C9.4961e-07 1.13772 0.093625 1.36346 0.261453 1.53337L10.3146 11.7166C10.4031 11.8062 10.5094 11.8774 10.6272 11.9262C10.745 11.9749 10.8718 12 11 12C11.1282 12 11.255 11.9749 11.3728 11.9262C11.4906 11.8774 11.597 11.8062 11.6854 11.7166Z" fill="#50453B"/>
</svg>
