<svg width="151" height="150" viewBox="0 0 151 150" fill="none" xmlns="http://www.w3.org/2000/svg">
<path d="M62.9341 21.1338C67.7676 9.43327 83.9663 9.05395 88.8233 20.7448C92.1863 28.8394 94.7524 37.1749 97.3369 48.0661C108.758 47.9496 117.686 48.1966 126.697 49.0064C139.366 50.1449 144.478 65.5496 134.616 73.5819C129.041 78.122 123.055 82.3213 115.552 87.0305C113.44 88.356 112.49 90.9494 113.256 93.3224C116.757 104.18 119.122 112.993 120.962 122.239C123.41 134.535 110.456 143.916 99.9286 137.108C91.8567 131.889 84.5243 125.88 75.5 117.309C66.5574 125.542 59.261 131.383 51.282 136.57C40.6933 143.455 27.4612 134.174 29.9195 121.785C31.6964 112.831 34.0653 104.122 37.6705 93.3733C38.4738 90.9785 37.5234 88.3397 35.3803 87.0028C27.649 82.1803 21.509 77.8844 15.7484 73.15C6.04477 65.1753 10.9985 49.9749 23.5054 48.8193C32.6587 47.9734 41.7983 47.794 53.6632 48.0661C56.7873 37.4393 59.5921 29.2234 62.9341 21.1338Z" fill="#FFFAF0" stroke="#FFFAF0" stroke-width="1.73116" stroke-linejoin="round"/>
</svg>
