<svg width="150" height="150" viewBox="0 0 150 150" fill="none" xmlns="http://www.w3.org/2000/svg">
<g clip-path="url(#clip0_134_74)">
<path d="M138.125 75H138.063C138.063 40.25 109.75 11.9375 75.0001 11.9375C40.3751 11.9375 12.1876 40 11.9376 74.625C11.9376 74.75 11.8751 74.875 11.8751 75C11.8751 109.75 40.1876 138.062 74.9376 138.062C109.125 138.062 136.938 110.687 137.875 76.75C137.938 76.1875 138.125 75.625 138.125 75ZM74.9376 131.812C43.6251 131.812 18.1251 106.312 18.1251 75V74.625C18.3751 60 30.3126 48.1875 44.9376 48.1875C59.6876 48.1875 71.7501 60.1875 71.7501 75H71.8751C71.8751 93.25 86.7501 108.125 105 108.125C112.813 108.125 119.875 105.312 125.5 100.812C116.063 119.187 97.0001 131.812 74.9376 131.812ZM-371.187 98.4375C-371.645 97.9788 -372.237 97.6773 -372.877 97.5762C-373.517 97.4751 -374.173 97.5797 -374.75 97.875C-381.312 101.125 -388.25 102.75 -395.375 102.75C-421.25 102.75 -442.25 81.6875 -442.25 55.875C-442.25 41 -435.375 27.3125 -423.312 18.3125C-422.25 17.5625 -422.125 16.1875 -422.5 14.9375C-422.875 13.6875 -424.312 12.75 -425.562 12.6875C-425.875 12.6875 -426.25 12.625 -426.562 12.625C-460.937 12.625 -488.938 40.625 -488.938 75C-488.938 109.375 -460.937 137.375 -426.562 137.375C-402.875 137.375 -380.875 123.562 -370.5 102.125C-370.245 101.51 -370.174 100.834 -370.296 100.179C-370.418 99.5246 -370.728 98.9195 -371.187 98.4375ZM-564 11.8125C-598.75 11.8125 -627.062 40.125 -627.062 74.875C-627.062 109.625 -598.75 137.937 -564 137.937C-529.25 137.937 -500.937 109.625 -500.937 74.875C-500.937 40.125 -529.25 11.8125 -564 11.8125ZM-528.125 108.75H-598.812C-600.875 108.75 -602.563 107.062 -602.563 105C-602.563 102.937 -600.875 101.25 -598.812 101.25H-528.125C-526.062 101.25 -524.375 102.937 -524.375 105C-524.375 107.062 -526.062 108.75 -528.125 108.75ZM-528.125 93.75H-598.812C-600.875 93.75 -602.563 92.0625 -602.563 90C-602.563 87.9375 -600.875 86.25 -598.812 86.25H-528.125C-526.062 86.25 -524.375 87.9375 -524.375 90C-524.375 92.0625 -526.062 93.75 -528.125 93.75ZM-528.125 78.75H-598.812C-600.875 78.75 -602.563 77.0625 -602.563 75C-602.563 72.9375 -600.875 71.25 -598.812 71.25H-528.125C-526.062 71.25 -524.375 72.9375 -524.375 75C-524.375 77.0625 -526.062 78.75 -528.125 78.75ZM-528.125 63.75H-598.812C-600.875 63.75 -602.563 62.0625 -602.563 60C-602.563 57.9375 -600.875 56.25 -598.812 56.25H-528.125C-526.062 56.25 -524.375 57.9375 -524.375 60C-524.375 62.0625 -526.062 63.75 -528.125 63.75ZM-528.125 48.75H-598.812C-600.875 48.75 -602.563 47.0625 -602.563 45C-602.563 42.9375 -600.875 41.25 -598.812 41.25H-528.125C-526.062 41.25 -524.375 42.9375 -524.375 45C-524.375 47.0625 -526.062 48.75 -528.125 48.75ZM-391.75 31.75L-386 20.75C-385.875 20.5 -385.875 20.1875 -386.062 19.9375C-386.25 19.6875 -386.562 19.5625 -386.812 19.625L-399.062 21.75L-407.75 12.875C-407.937 12.6875 -408.25 12.5625 -408.562 12.6875C-408.875 12.75 -409.062 13 -409.062 13.3125L-410.812 25.5625L-421.937 31.0625C-422.187 31.1875 -422.375 31.4375 -422.375 31.75C-422.375 32.0625 -422.187 32.3125 -421.937 32.4375L-410.812 37.9375L-409 50.1875C-408.937 50.5 -408.75 50.75 -408.5 50.8125C-408.437 50.8125 -408.312 50.875 -408.25 50.875C-408.062 50.875 -407.812 50.8125 -407.687 50.625L-399.062 41.75L-386.812 43.8125C-386.5 43.875 -386.25 43.75 -386.062 43.5C-385.875 43.25 -385.875 42.9375 -386 42.6875L-391.75 31.75ZM-371.75 60L-368.25 53.375C-368.125 53.125 -368.125 52.8125 -368.312 52.5625C-368.5 52.3125 -368.75 52.1875 -369.062 52.25L-376.437 53.5L-381.625 48.1875C-381.812 48 -382.125 47.875 -382.437 48C-382.75 48.0625 -382.937 48.3125 -382.937 48.625L-384 56L-390.687 59.3125C-390.937 59.4375 -391.125 59.6875 -391.125 60C-391.125 60.3125 -390.937 60.5625 -390.687 60.6875L-384 64L-382.937 71.375C-382.875 71.6875 -382.687 71.9375 -382.437 72C-382.375 72 -382.25 72.0625 -382.187 72.0625C-382 72.0625 -381.75 72 -381.625 71.8125L-376.437 66.4375L-369.062 67.6875C-368.75 67.75 -368.5 67.625 -368.312 67.375C-368.125 67.125 -368.125 66.8125 -368.25 66.5625L-371.75 60ZM-400.875 77.3125L-397.375 70.6875C-397.25 70.4375 -397.25 70.125 -397.437 69.875C-397.625 69.625 -397.875 69.5 -398.187 69.5625L-405.562 70.8125L-410.75 65.5C-410.937 65.3125 -411.25 65.1875 -411.562 65.3125C-411.875 65.375 -412.062 65.625 -412.062 65.9375L-413.125 73.3125L-419.812 76.625C-420.062 76.75 -420.25 77 -420.25 77.3125C-420.25 77.625 -420.062 77.875 -419.812 78L-413.125 81.3125L-412.062 88.6875C-412 89 -411.812 89.25 -411.562 89.3125C-411.5 89.3125 -411.375 89.375 -411.312 89.375C-411.125 89.375 -410.875 89.3125 -410.75 89.125L-405.562 83.75L-398.187 85C-397.875 85.0625 -397.625 84.9375 -397.437 84.6875C-397.25 84.4375 -397.25 84.125 -397.375 83.875L-400.875 77.3125Z" fill="#548449"/>
</g>
<defs>
<clipPath id="clip0_134_74">
<rect width="150" height="150" fill="white"/>
</clipPath>
</defs>
</svg>
