<svg width="151" height="150" viewBox="0 0 151 150" fill="none" xmlns="http://www.w3.org/2000/svg">
<path d="M64.9837 85.5529L9.83716 140.699" stroke="#548449" stroke-width="1.73116" stroke-linecap="round" stroke-linejoin="round"/>
<path d="M114.421 19.2518C126.045 14.2367 137.795 25.4557 132.722 37.0539C129.868 43.5777 126.399 49.9917 121.635 57.7212C128.269 64.2222 133.438 69.6294 138.228 75.2162C146.508 84.8716 139.214 99.3952 126.588 97.855C121.022 97.176 115.301 96.131 108.651 94.6189C106.22 94.0661 103.712 95.2271 102.573 97.4453C98.3802 105.611 94.6359 112.18 90.5003 118.546C83.6701 129.06 67.831 126.52 65.4682 114.207C63.9807 106.455 63.2607 98.4639 62.9975 88.2414C53.0472 87.8297 45.2016 87.0298 37.553 85.5642C25.1486 83.1872 22.3419 67.2173 32.9415 60.3494C39.1022 56.3576 45.591 52.7 53.7061 48.6497C55.9662 47.5217 57.1585 44.9823 56.5918 42.5208C55.003 35.6205 53.9172 29.7083 53.2341 23.8983C51.7674 11.4241 66.0395 4.16159 75.5808 12.3297C81.2972 17.2235 86.8176 22.5898 93.5175 29.6043C101.403 25.3016 107.895 22.0675 114.421 19.2518Z" fill="#548449" stroke="#548449" stroke-width="1.73116" stroke-linejoin="round"/>
</svg>
