<svg width="150" height="150" viewBox="0 0 150 150" fill="none" xmlns="http://www.w3.org/2000/svg">
<path d="M70.625 14.125L33.125 28.1875C28.25 30.0625 25 34.6875 25 39.9375V69.3125C25 99.5 44.5625 127.875 71.4375 136.5C73.75 137.25 76.25 137.25 78.5625 136.5C105.437 127.875 125 99.5625 125 69.3125V39.9375C124.996 37.3941 124.215 34.9126 122.764 32.8243C121.312 30.7359 119.258 29.1402 116.875 28.25L79.375 14.1875C76.5625 13.0625 73.4375 13.0625 70.625 14.125ZM75 106.25C57.75 106.25 43.75 92.25 43.75 75C43.75 57.75 57.75 43.75 75 43.75C92.25 43.75 106.25 57.75 106.25 75C106.25 92.25 92.25 106.25 75 106.25ZM87.5 87.5C86.25 88.75 84.3125 88.75 83.0625 87.5L72.75 77.1875C72.1668 76.6067 71.8308 75.8228 71.8125 75V59.375C71.875 57.625 73.25 56.25 75 56.25C76.75 56.25 78.125 57.625 78.125 59.375V73.6875L87.5 83.0625C88.75 84.3125 88.75 86.25 87.5 87.5Z" fill="#548449"/>
</svg>
