<svg width="151" height="150" viewBox="0 0 151 150" fill="none" xmlns="http://www.w3.org/2000/svg">
<path d="M64.5805 8.60278C63.9593 8.23171 63.2491 8.03577 62.5256 8.03577C61.8019 8.03577 61.0919 8.23171 60.4707 8.60278C59.9582 9.00877 59.6125 9.58856 59.4989 10.2324C59.3853 10.8761 59.5117 11.5392 59.8542 12.0962C69.0136 27.9576 72.9378 47.9748 67.8325 64.0506C64.5281 74.4552 51.1211 75.0537 45.566 65.656C44.4259 63.7272 43.3983 61.7278 42.4903 59.6672C36.107 63.2124 30.8169 68.4385 27.1943 74.7782C23.5715 81.1178 21.7548 88.3286 21.9413 95.6279C23.0235 122.355 40.2299 141.864 73.3138 141.864C106.398 141.864 123.556 121.315 124.687 95.6279C126.022 64.8044 104.137 26.8914 64.5805 8.60278Z" fill="#FFFAF0" stroke="#FFFAF0" stroke-width="1.73288" stroke-linecap="round" stroke-linejoin="round"/>
</svg>
