<svg width="151" height="150" viewBox="0 0 151 150" fill="none" xmlns="http://www.w3.org/2000/svg">
<path d="M98.9375 119.562C93.75 119.562 89.5625 114.312 89.5625 107.812C89.5625 101.375 93.75 96.125 98.9375 96.125C104.125 96.125 108.312 101.375 108.312 107.812C108.312 114.312 104.125 119.562 98.9375 119.562ZM75.5 70.3125C67.75 70.3125 61.4375 65.0625 61.4375 58.625C61.4375 52.125 67.75 46.875 75.5 46.875C83.25 46.875 89.5625 52.125 89.5625 58.625C89.5625 65.0625 83.25 70.3125 75.5 70.3125ZM52.0625 119.562C46.875 119.562 42.6875 114.312 42.6875 107.812C42.6875 101.375 46.875 96.125 52.0625 96.125C57.25 96.125 61.4375 101.375 61.4375 107.812C61.4375 114.312 57.25 119.562 52.0625 119.562ZM75.5 51.5625C78.0625 51.5625 80.1875 53.6875 80.1875 56.25C80.1875 58.8125 78.0625 60.9375 75.5 60.9375C72.9375 60.9375 70.8125 58.8125 70.8125 56.25C70.8125 53.6875 72.9375 51.5625 75.5 51.5625ZM117.687 75C115.687 75 113.75 75.4375 112 76.25C109 72.4375 104.937 69.1875 100.062 66.6875C103.625 61.6875 105.75 55.625 105.75 49.0625V48.6875C112.562 47.25 117.687 41.1875 117.687 33.875C117.687 25.5625 110.875 18.75 102.562 18.75C98.25 18.75 94.25 20.5625 91.625 23.4375C86.8047 20.374 81.2114 18.747 75.5 18.747C69.7885 18.747 64.1953 20.374 59.375 23.4375C56.75 20.5625 52.75 18.75 48.4375 18.75C40.125 18.75 33.3125 25.5625 33.3125 33.875C33.3125 41.125 38.4375 47.1875 45.1875 48.6875V49.0625C45.1875 55.625 47.375 61.75 50.875 66.6875C46.0625 69.1875 42 72.4375 39 76.25C36.8641 75.2879 34.521 74.8771 32.1852 75.0552C29.8495 75.2333 27.5957 75.9948 25.6305 77.2697C23.6653 78.5446 22.0514 80.2922 20.9366 82.3526C19.8219 84.4129 19.242 86.72 19.25 89.0625C19.25 96.875 25.5 103.125 33.3125 103.125H33.6875C33.4375 104.625 33.3125 106.25 33.3125 107.812C33.3125 120.75 41.6875 131.25 52.0625 131.25C58.375 131.25 63.9375 127.312 67.375 121.312C70 121.688 72.6875 121.875 75.5 121.875C78.3125 121.875 81 121.688 83.625 121.312C87.0625 127.312 92.625 131.25 98.9375 131.25C109.312 131.25 117.687 120.75 117.687 107.812C117.687 106.25 117.562 104.625 117.312 103.125H117.687C125.5 103.125 131.75 96.875 131.75 89.0625C131.75 81.25 125.5 75 117.687 75Z" fill="#548449"/>
</svg>
