<svg width="190" height="72" viewBox="0 0 190 72" fill="none" xmlns="http://www.w3.org/2000/svg">
<path d="M34.0814 38.2L35.4314 40.7C31.7314 44.25 26.7314 46.2 21.5814 46C11.4314 46 2.83144 39.75 2.83144 27.25C2.83144 14.75 11.4314 9.25 21.5814 9.25C25.7314 9.19999 29.7814 10.35 33.1814 12.7L31.8314 15.85C28.9814 12.25 24.6314 10.1 20.0314 10.05C10.6314 10.05 7.48144 18.65 7.48144 27.25C7.48144 39.75 16.0814 45.25 23.1314 45.25C27.8314 45.15 32.0314 42.4 34.0814 38.2ZM60.9107 29.45C64.4107 30.55 67.1607 33 67.1607 37.4C67.1607 43.7 62.4607 46 52.3107 46C49.6607 45.95 47.0607 45.65 44.4607 45.25L39.8107 46V18.65L44.4607 17.85H55.4107C60.2107 17.85 65.6107 19.45 65.6107 24.1C65.6107 27.85 63.1107 29.1 60.9107 29.45ZM44.4607 18.65V28.8H56.2107C59.3607 28.8 60.9107 27.25 60.9107 24.1C60.9107 20.2 57.7607 18.65 54.6607 18.65H44.4607ZM52.3107 45.25C60.1107 45.25 62.4607 41.35 62.4607 37.4C62.4607 32.25 59.3607 29.6 55.4107 29.6H44.4607V44.45C47.0607 44.9 49.6607 45.15 52.3107 45.25ZM92.6791 18.65L97.3791 17.85V45.25L92.6791 46V26.3L77.0291 45V45.25L72.3791 46V18.65L77.0291 17.85V43.8L92.6791 25.05V18.65ZM122.881 18.65L127.581 17.85V45.25L122.881 46V35.05H116.631C106.481 35.05 106.481 42.1 106.481 46L103.331 45.25C103.331 41.45 105.381 36.6 112.031 34.9C106.531 34.3 102.581 31.8 102.581 26.45C102.581 20.2 108.831 17.85 115.831 17.85C118.231 17.8 120.581 18.05 122.881 18.65ZM122.881 34.3V19.45C120.581 18.85 118.231 18.55 115.881 18.65C109.581 18.65 107.231 22.55 107.231 26.45C107.231 31.6 110.381 34.3 115.881 34.3H122.881ZM150.107 18.65L154.807 17.85V22.55L150.107 23.35V19.45H138.357V45.25L133.707 46V18.65H150.107ZM180.718 18.65L185.418 17.85V45.25L180.718 46V43C178.018 45.05 174.718 46.1 171.318 46C163.518 46 157.268 41.35 157.268 31.95C157.268 22.55 163.518 17.85 171.318 17.85C174.718 17.75 178.018 18.85 180.718 20.9V18.65ZM172.868 45.25C176.018 45.1 178.918 43.5 180.718 40.95V23.7C177.868 20.65 173.918 18.85 169.768 18.65C163.518 18.65 161.918 25.7 161.918 31.95C161.918 41.35 168.168 45.25 172.868 45.25Z" fill="#FFFAF0"/>
<path d="M50.4458 62.528H52.0298C52.0298 63.76 53.0058 64.752 54.2378 64.752C55.4538 64.752 56.4458 63.76 56.4458 62.528C56.4458 61.104 55.4218 60.32 53.5018 60.32V58.976C55.1178 58.976 55.9978 58.336 55.9978 57.216C55.9978 56.224 55.1978 55.408 54.2057 55.408C53.2298 55.408 52.4138 56.224 52.4138 57.216H50.8938C50.8938 55.424 52.3818 53.968 54.2057 53.968C56.0458 53.968 57.5338 55.408 57.5338 57.2C57.5338 58.32 56.7978 59.296 55.7258 59.568C56.9898 59.872 58.0138 61.216 58.0138 62.544C58.0138 64.56 56.3178 66.208 54.2378 66.208C52.1578 66.208 50.4458 64.544 50.4458 62.528ZM59.1701 61.632C59.1701 58.976 61.1221 57.008 63.7461 57.008C65.2021 57.008 66.1941 57.504 67.0261 58.64V57.216H68.4661V66H67.0261V64.592C66.1141 65.744 65.2021 66.208 63.7941 66.208C61.1381 66.208 59.1701 64.272 59.1701 61.632ZM60.6901 61.616C60.6901 63.44 62.0821 64.832 63.8901 64.832C65.6661 64.832 66.9941 63.456 66.9941 61.6C66.9941 59.744 65.6501 58.384 63.8101 58.384C62.0661 58.384 60.6901 59.808 60.6901 61.616ZM70.3819 66V57.216H75.0379V58.576H71.8859V66H70.3819ZM75.8576 61.616C75.8576 58.976 77.8736 57.008 80.5456 57.008C83.1216 57.008 85.0896 59.008 85.0896 61.632C85.0896 64.224 83.1216 66.208 80.5456 66.208C77.9056 66.208 75.8576 64.208 75.8576 61.616ZM80.5296 64.832C82.2736 64.832 83.5856 63.472 83.5856 61.632C83.5856 59.76 82.2576 58.384 80.4496 58.384C78.7056 58.384 77.3776 59.792 77.3776 61.616C77.3776 63.456 78.7376 64.832 80.5296 64.832ZM86.6631 69.04V57.216H88.1031V58.56C88.8231 57.552 89.9591 57.008 91.3671 57.008C93.9591 57.008 95.9111 58.976 95.9111 61.6C95.9111 64.224 93.9431 66.208 91.3351 66.208C90.0071 66.208 88.9511 65.712 88.1671 64.72V69.04H86.6631ZM91.2551 64.832C93.0311 64.832 94.3911 63.456 94.3911 61.632C94.3911 59.744 93.0471 58.384 91.1911 58.384C89.4311 58.384 88.0711 59.792 88.0711 61.616C88.0711 63.44 89.4471 64.832 91.2551 64.832ZM97.092 61.616C97.092 58.976 99.108 57.008 101.78 57.008C104.356 57.008 106.324 59.008 106.324 61.632C106.324 64.224 104.356 66.208 101.78 66.208C99.14 66.208 97.092 64.208 97.092 61.616ZM101.764 64.832C103.508 64.832 104.82 63.472 104.82 61.632C104.82 59.76 103.492 58.384 101.684 58.384C99.94 58.384 98.612 59.792 98.612 61.616C98.612 63.456 99.972 64.832 101.764 64.832ZM106.678 68.048V64.64H107.878L111.062 57.216H112.566L115.75 64.64H116.95V68.048H115.91L115.462 66H108.166L107.734 68.048H106.678ZM109.446 64.64H114.182L111.814 59.088L109.446 64.64ZM118.148 66V57.216H119.652V60.864H124.452V57.216H125.94V66H124.452V62.224H119.652V66H118.148ZM129.37 64.64H131.322C132.458 64.64 133.082 64.16 133.082 63.28C133.082 62.4 132.458 61.92 131.322 61.92H129.37V64.64ZM127.866 66V57.216H129.37V60.56H131.562C133.338 60.56 134.602 61.696 134.602 63.28C134.602 64.864 133.338 66 131.562 66H127.866ZM135.562 66V57.216H137.066V66H135.562ZM140.431 54.064H141.759C141.759 54.928 142.143 55.344 142.927 55.344C143.711 55.344 144.095 54.928 144.095 54.064H145.423C145.199 55.424 144.335 56.144 142.927 56.144C141.519 56.144 140.655 55.424 140.431 54.064ZM138.991 66V57.216H140.479V63.872L145.359 57.216H146.863V66H145.375V59.328L140.495 66H138.991ZM153.241 66V57.216H154.745V61.168L158.425 57.216H160.313L156.217 61.504L160.377 66H158.425L154.745 61.888V66H153.241ZM160.502 66L164.246 57.216H165.686L169.43 66H167.83L164.966 59.104L162.102 66H160.502ZM170.515 69.04L172.019 65.536L168.675 57.216H170.355L172.851 63.776L175.539 57.216H177.203L172.115 69.04H170.515ZM179.312 59.136L179.361 59.152C179.889 57.904 181.361 57.056 182.961 57.056C185.409 57.056 187.312 59.056 187.312 61.616C187.312 64.208 185.297 66.208 182.657 66.208C179.713 66.208 178.049 64.304 178.049 60.928V60.032C178.049 55.968 179.601 53.936 182.945 53.664L186.705 53.344V54.704L183.025 55.04C180.577 55.264 179.345 56.608 179.312 59.136ZM182.641 64.832C184.433 64.832 185.793 63.424 185.793 61.6C185.793 59.792 184.433 58.416 182.641 58.416C180.881 58.416 179.521 59.808 179.521 61.6C179.521 63.44 180.849 64.832 182.641 64.832Z" fill="#FFFAF0"/>
<path d="M24.4599 12.6469C24.5777 12.386 24.7061 12.133 24.7453 12.0847C24.849 11.957 25.065 11.9772 25.1424 12.1217C25.3295 12.4715 25.7731 15.0916 25.9241 16.74C26.0253 17.8433 26.0251 20.679 25.9238 21.6591C25.1829 28.8297 21.6807 33.2429 15.4456 34.8631C14.2976 35.1613 12.9396 35.3912 12.188 35.4143L11.6276 35.4316L11.5314 35.1505C11.378 34.7027 11.4057 33.1895 11.5831 32.3265C12.2132 29.2608 14.4387 26.0692 17.8299 23.3683C18.1125 23.1431 18.3253 22.9588 18.3026 22.9588C18.2107 22.9588 17.0614 23.566 16.4023 23.9628C13.0638 25.9723 11.152 28.15 10.2148 31.0114C9.70759 32.5596 9.54506 34.5678 9.8026 36.1043C10.2137 38.5579 10.9761 39.7411 10.9761 39.7411C10.9761 39.7411 10.1938 38.8383 9.47878 37.5903C8.88113 36.5471 8.32021 35.4649 7.92213 34.3304C7.30865 32.5821 7.00189 30.1722 7.00195 27.2511C7.00196 26.3049 7.63255 24.4799 8.86001 23.2498C10.2396 21.8671 11.6718 20.8134 13.3591 19.9396C14.5277 19.3345 15.0312 19.1334 16.9644 18.4995C19.2328 17.7556 20.6051 17.0295 22.0051 15.8323C22.9816 14.9973 23.9901 13.6885 24.4599 12.6469Z" fill="#FFFAF0"/>
</svg>
