<svg width="40" height="41" viewBox="0 0 40 41" fill="none" xmlns="http://www.w3.org/2000/svg">
<mask id="mask0_134_304" style="mask-type:luminance" maskUnits="userSpaceOnUse" x="4" y="4" width="32" height="33">
<path d="M4.16663 4.6665H35.8333V36.3332H4.16663V4.6665Z" fill="white"/>
</mask>
<g mask="url(#mask0_134_304)">
<path d="M22.9833 4.89987L22.0333 4.76653C19.1782 4.3543 16.2647 4.76213 13.6325 5.94248C11.0003 7.12283 8.7579 9.02707 7.16663 11.4332C5.47355 13.7332 4.46427 16.4644 4.25492 19.3127C4.04558 22.1609 4.64469 25.0104 5.98329 27.5332C6.12029 27.786 6.20558 28.0636 6.23419 28.3498C6.26281 28.6359 6.23417 28.9249 6.14996 29.1999C5.46663 31.5499 4.83329 33.9165 4.16663 36.3999L4.99996 36.1499C7.24996 35.5499 9.49996 34.9499 11.75 34.3999C12.2249 34.3011 12.7185 34.3476 13.1666 34.5332C15.1853 35.5184 17.3913 36.0604 19.6367 36.1229C21.8821 36.1853 24.1148 35.7667 26.1851 34.8952C28.2554 34.0238 30.1154 32.7195 31.6401 31.0701C33.1649 29.4206 34.3192 27.4641 35.0255 25.3318C35.7319 23.1995 35.974 20.9408 35.7356 18.7072C35.4972 16.4737 34.7837 14.3169 33.6432 12.3818C32.5027 10.4467 30.9614 8.77786 29.1228 7.48741C27.2842 6.19696 25.1909 5.31471 22.9833 4.89987ZM27.1833 26.7665C26.5776 27.3089 25.8389 27.6809 25.0426 27.8449C24.2462 28.0088 23.4207 27.9588 22.65 27.6999C19.1576 26.7165 16.1277 24.5252 14.1 21.5165C13.3254 20.4524 12.7028 19.2857 12.25 18.0499C12.0047 17.3328 11.9605 16.5623 12.1221 15.8219C12.2837 15.0815 12.6449 14.3995 13.1666 13.8499C13.4206 13.5257 13.7663 13.2856 14.1587 13.1607C14.5511 13.0359 14.972 13.0321 15.3666 13.1499C15.7 13.2332 15.9333 13.7165 16.2333 14.0832C16.4766 14.7715 16.7616 15.4449 17.0833 16.0999C17.3273 16.434 17.4293 16.8512 17.3668 17.2603C17.3043 17.6693 17.0826 18.0371 16.75 18.2832C16 18.9499 16.1166 19.4999 16.65 20.2499C17.829 21.9485 19.456 23.2869 21.35 24.1165C21.8833 24.3499 22.2833 24.3999 22.6333 23.8499C22.7833 23.6332 22.9833 23.4499 23.15 23.2499C24.1166 22.0332 23.8166 22.0499 25.35 22.7165C25.8383 22.9215 26.3116 23.1615 26.7666 23.4332C27.2166 23.6999 27.9 23.9832 28 24.3832C28.0962 24.8171 28.0709 25.2692 27.9268 25.6897C27.7827 26.1102 27.5254 26.4828 27.1833 26.7665Z" fill="#FFFAF0"/>
</g>
</svg>
