<svg width="11" height="11" viewBox="0 0 11 11" fill="none" xmlns="http://www.w3.org/2000/svg">
<path d="M9.75008 6.20671H6.20842V9.74837C6.20842 9.93624 6.13379 10.1164 6.00095 10.2492C5.86811 10.3821 5.68794 10.4567 5.50008 10.4567C5.31222 10.4567 5.13205 10.3821 4.99921 10.2492C4.86638 10.1164 4.79175 9.93624 4.79175 9.74837V6.20671H1.25008C1.06222 6.20671 0.882053 6.13208 0.749214 5.99924C0.616376 5.8664 0.541748 5.68624 0.541748 5.49837C0.541748 5.31051 0.616376 5.13034 0.749214 4.99751C0.882053 4.86467 1.06222 4.79004 1.25008 4.79004H4.79175V1.24837C4.79175 1.06051 4.86638 0.880343 4.99921 0.747505C5.13205 0.614667 5.31222 0.540039 5.50008 0.540039C5.68794 0.540039 5.86811 0.614667 6.00095 0.747505C6.13379 0.880343 6.20842 1.06051 6.20842 1.24837V4.79004H9.75008C9.93794 4.79004 10.1181 4.86467 10.251 4.99751C10.3838 5.13034 10.4584 5.31051 10.4584 5.49837C10.4584 5.68624 10.3838 5.8664 10.251 5.99924C10.1181 6.13208 9.93794 6.20671 9.75008 6.20671Z" fill="#50453B"/>
</svg>
